<?xml version="1.0" encoding="iso-8859-1"?>
<!-- Uploaded to: SVG Repo, www.svgrepo.com, Generator: SVG Repo Mixer Tools -->
<svg version="1.1" id="Layer_1" xmlns="http://www.w3.org/2000/svg" xmlns:xlink="http://www.w3.org/1999/xlink" 
	 viewBox="0 0 512 512" xml:space="preserve">
<path style="fill:#DFDFE1;" d="M410.353,421.647h-60.235v-45.176h60.235c12.455,0,22.588-10.133,22.588-22.588V218.353
	c0-12.455-10.133-22.588-22.588-22.588h-60.235v-45.176h60.235c37.365,0,67.765,30.399,67.765,67.765v135.529
	C478.118,391.248,447.718,421.647,410.353,421.647z"/>
<path style="fill:#F2F2F4;" d="M274.824,0c-37.647,0-37.647,15.059-75.294,15.059S161.882,0,124.235,0
	C74.294,0,33.882,40.412,33.882,90.353l0,0v376.471c0,24.847,20.329,45.176,45.176,45.176H320c24.847,0,45.176-20.329,45.176-45.176
	V90.353C365.176,40.412,324.765,0,274.824,0z"/>
<path style="fill:#DFDFE1;" d="M274.824,0c-37.647,0-37.647,15.059-75.294,15.059V512H320c24.847,0,45.176-20.329,45.176-45.176
	V90.353C365.176,40.412,324.765,0,274.824,0z"/>
<path style="fill:#FFEA8A;" d="M33.882,466.824c0,24.847,20.329,45.176,45.176,45.176H320c24.847,0,45.176-20.329,45.176-45.176
	V90.353H33.882l0,0V466.824z"/>
<g>
	<path style="fill:#FFDB2D;" d="M199.529,90.353V512H320c24.847,0,45.176-20.329,45.176-45.176V90.353H199.529z"/>
	<rect x="124.235" y="240.941" style="fill:#FFDB2D;" width="45.176" height="173.176"/>
</g>
<rect x="229.647" y="240.941" style="fill:#FFAF33;" width="45.176" height="173.176"/>
<rect x="33.882" y="150.588" style="fill:#FFDB2D;" width="331.294" height="45.176"/>
<rect x="199.529" y="150.588" style="fill:#FFAF33;" width="165.647" height="45.176"/>
</svg>