<?xml version="1.0" encoding="iso-8859-1"?>
<!-- Uploaded to: SVG Repo, www.svgrepo.com, Generator: SVG Repo Mixer Tools -->
<svg version="1.1" id="Layer_1" xmlns="http://www.w3.org/2000/svg" xmlns:xlink="http://www.w3.org/1999/xlink" 
	 viewBox="0 0 512 512" xml:space="preserve">
<path style="fill:#FFEA8A;" d="M294.4,76.8c0,179.2,76.8,140.8,76.8,320V512H140.8V396.8c0-179.2,76.8-140.8,76.8-320V0h76.8V76.8z"
	/>
<path style="fill:#FFDB2D;" d="M294.4,76.8V0H256v512h115.2V396.8C371.2,217.6,294.4,256,294.4,76.8z"/>
<path style="fill:#6DC180;" d="M335.057,240.943L256,320l-79.057-79.057C158.524,274.844,140.8,310.712,140.8,396.8V512h230.4V396.8
	C371.2,310.712,353.476,274.844,335.057,240.943z"/>
<path style="fill:#5CA15D;" d="M335.057,240.943L256,320v192h115.2V396.8C371.2,310.712,353.476,274.844,335.057,240.943z"/>
<rect x="204.8" y="396.8" style="fill:#F2F2F4;" width="102.4" height="38.4"/>
<rect x="256" y="396.8" style="fill:#DFDFE1;" width="51.2" height="38.4"/>
</svg>