<?xml version="1.0" encoding="UTF-8"?>
<!DOCTYPE svg PUBLIC "-//W3C//DTD SVG 1.1//EN" "http://www.w3.org/Graphics/SVG/1.1/DTD/svg11.dtd">
<svg xmlns="http://www.w3.org/2000/svg" version="1.1" width="512px" height="512px" style="shape-rendering:geometricPrecision; text-rendering:geometricPrecision; image-rendering:optimizeQuality; fill-rule:evenodd; clip-rule:evenodd" xmlns:xlink="http://www.w3.org/1999/xlink">
<g><path style="opacity:0.996" fill="#f1f1f3" d="M 109.5,-0.5 C 119.167,-0.5 128.833,-0.5 138.5,-0.5C 151.861,3.11742 165.194,7.28409 178.5,12C 185.482,13.0623 192.482,13.8957 199.5,14.5C 199.5,39.5 199.5,64.5 199.5,89.5C 199.167,89.5 198.833,89.5 198.5,89.5C 143.167,89.5 87.8333,89.5 32.5,89.5C 34.2035,52.5616 51.2035,25.395 83.5,8C 91.9834,4.22701 100.65,1.39367 109.5,-0.5 Z"/></g>
<g><path style="opacity:1" fill="#dfdfe1" d="M 259.5,-0.5 C 269.167,-0.5 278.833,-0.5 288.5,-0.5C 329.706,8.20558 354.873,33.2056 364,74.5C 364.501,79.5082 365.001,84.5082 365.5,89.5C 310.167,89.5 254.833,89.5 199.5,89.5C 199.5,64.5 199.5,39.5 199.5,14.5C 206.885,13.9397 214.218,12.9397 221.5,11.5C 234.104,6.83997 246.771,2.83997 259.5,-0.5 Z"/></g>
<g><path style="opacity:1" fill="#fbeeb1" d="M 32.5,89.5 C 87.8333,89.5 143.167,89.5 198.5,89.5C 198.5,89.8333 198.5,90.1667 198.5,90.5C 143.5,90.5 88.5,90.5 33.5,90.5C 33.5,110.5 33.5,130.5 33.5,150.5C 33.5,165.5 33.5,180.5 33.5,195.5C 33.5,286.5 33.5,377.5 33.5,468.5C 32.5004,342.334 32.1671,216.001 32.5,89.5 Z"/></g>
<g><path style="opacity:1" fill="#f9e070" d="M 198.5,89.5 C 198.833,89.5 199.167,89.5 199.5,89.5C 254.833,89.5 310.167,89.5 365.5,89.5C 365.5,109.5 365.5,129.5 365.5,149.5C 365.5,164.833 365.5,180.167 365.5,195.5C 365.5,255.5 365.5,315.5 365.5,375.5C 365.5,390.833 365.5,406.167 365.5,421.5C 365.83,437.675 365.496,453.675 364.5,469.5C 364.5,378.167 364.5,286.833 364.5,195.5C 364.5,195.167 364.5,194.833 364.5,194.5C 364.5,179.833 364.5,165.167 364.5,150.5C 364.5,150.167 364.5,149.833 364.5,149.5C 364.5,129.833 364.5,110.167 364.5,90.5C 309.5,90.5 254.5,90.5 199.5,90.5C 199.5,110.167 199.5,129.833 199.5,149.5C 199.167,149.5 198.833,149.5 198.5,149.5C 198.5,129.833 198.5,110.167 198.5,90.5C 198.5,90.1667 198.5,89.8333 198.5,89.5 Z"/></g>
<g><path style="opacity:1" fill="#ffe989" d="M 198.5,90.5 C 198.5,110.167 198.5,129.833 198.5,149.5C 198.5,149.833 198.5,150.167 198.5,150.5C 143.5,150.5 88.5,150.5 33.5,150.5C 33.5,130.5 33.5,110.5 33.5,90.5C 88.5,90.5 143.5,90.5 198.5,90.5 Z"/></g>
<g><path style="opacity:1" fill="#fedb2c" d="M 364.5,149.5 C 309.5,149.5 254.5,149.5 199.5,149.5C 199.5,129.833 199.5,110.167 199.5,90.5C 254.5,90.5 309.5,90.5 364.5,90.5C 364.5,110.167 364.5,129.833 364.5,149.5 Z"/></g>
<g><path style="opacity:0.991" fill="#dedee0" d="M 365.5,149.5 C 382.837,149.333 400.17,149.5 417.5,150C 449.538,155.37 469.372,173.87 477,205.5C 478.13,232.14 478.63,258.807 478.5,285.5C 478.63,312.193 478.13,338.86 477,365.5C 471.56,390.942 456.726,408.442 432.5,418C 428.203,419.158 423.869,420.158 419.5,421C 401.503,421.5 383.503,421.667 365.5,421.5C 365.5,406.167 365.5,390.833 365.5,375.5C 381.837,375.667 398.17,375.5 414.5,375C 422.927,372.905 428.427,367.739 431,359.5C 431.667,310.167 431.667,260.833 431,211.5C 427.538,203.033 421.372,197.866 412.5,196C 396.837,195.5 381.17,195.333 365.5,195.5C 365.5,180.167 365.5,164.833 365.5,149.5 Z"/></g>
<g><path style="opacity:1" fill="#ffdb2d" d="M 33.5,150.5 C 88.5,150.5 143.5,150.5 198.5,150.5C 198.5,165.5 198.5,180.5 198.5,195.5C 143.5,195.5 88.5,195.5 33.5,195.5C 33.5,180.5 33.5,165.5 33.5,150.5 Z"/></g>
<g><path style="opacity:1" fill="#feaf32" d="M 364.5,150.5 C 364.5,165.167 364.5,179.833 364.5,194.5C 309.5,194.5 254.5,194.5 199.5,194.5C 199.5,179.833 199.5,165.167 199.5,150.5C 254.5,150.5 309.5,150.5 364.5,150.5 Z"/></g>
<g><path style="opacity:1" fill="#ffbf30" d="M 198.5,149.5 C 198.833,149.5 199.167,149.5 199.5,149.5C 254.5,149.5 309.5,149.5 364.5,149.5C 364.5,149.833 364.5,150.167 364.5,150.5C 309.5,150.5 254.5,150.5 199.5,150.5C 199.5,165.167 199.5,179.833 199.5,194.5C 254.5,194.5 309.5,194.5 364.5,194.5C 364.5,194.833 364.5,195.167 364.5,195.5C 309.167,195.5 253.833,195.5 198.5,195.5C 198.5,180.5 198.5,165.5 198.5,150.5C 198.5,150.167 198.5,149.833 198.5,149.5 Z"/></g>
<g><path style="opacity:1" fill="#fee989" d="M 33.5,195.5 C 88.5,195.5 143.5,195.5 198.5,195.5C 198.5,196.833 198.5,198.167 198.5,199.5C 169.768,193.529 146.435,202.196 128.5,225.5C 131.811,230.645 135.978,234.978 141,238.5C 141.585,239.998 141.085,240.998 139.5,241.5C 134.36,240.512 129.026,240.179 123.5,240.5C 123.5,245.833 123.5,251.167 123.5,256.5C 102.475,281.575 91.1413,310.575 89.5,343.5C 89.7223,369.514 98.3889,392.181 115.5,411.5C 110.636,426.071 114.303,437.904 126.5,447C 140.755,454.446 153.421,452.446 164.5,441C 171.99,441.205 179.49,441.705 187,442.5C 190.858,442.321 194.691,441.987 198.5,441.5C 198.5,464.833 198.5,488.167 198.5,511.5C 155.167,511.5 111.833,511.5 68.5,511.5C 46.9243,505.255 35.2576,490.922 33.5,468.5C 33.5,377.5 33.5,286.5 33.5,195.5 Z"/></g>
<g><path style="opacity:1" fill="#feda2d" d="M 198.5,195.5 C 253.833,195.5 309.167,195.5 364.5,195.5C 364.5,286.833 364.5,378.167 364.5,469.5C 362.264,491.4 350.597,505.4 329.5,511.5C 285.833,511.5 242.167,511.5 198.5,511.5C 198.5,488.167 198.5,464.833 198.5,441.5C 221.196,438.316 240.863,428.983 257.5,413.5C 263.167,413.5 268.833,413.5 274.5,413.5C 274.5,407.5 274.5,401.5 274.5,395.5C 287.149,377.75 295.649,358.083 300,336.5C 305.985,303.708 298.318,274.708 277,249.5C 281.849,221.35 270.015,207.85 241.5,209C 236.105,210.446 231.605,213.279 228,217.5C 219.559,209.227 209.725,203.227 198.5,199.5C 198.5,198.167 198.5,196.833 198.5,195.5 Z"/></g>
<g><path style="opacity:1" fill="#040302" d="M 198.5,199.5 C 209.725,203.227 219.559,209.227 228,217.5C 231.605,213.279 236.105,210.446 241.5,209C 270.015,207.85 281.849,221.35 277,249.5C 298.318,274.708 305.985,303.708 300,336.5C 295.649,358.083 287.149,377.75 274.5,395.5C 268.805,401.526 263.139,407.526 257.5,413.5C 240.863,428.983 221.196,438.316 198.5,441.5C 194.691,441.987 190.858,442.321 187,442.5C 179.49,441.705 171.99,441.205 164.5,441C 153.421,452.446 140.755,454.446 126.5,447C 114.303,437.904 110.636,426.071 115.5,411.5C 98.3889,392.181 89.7223,369.514 89.5,343.5C 91.1413,310.575 102.475,281.575 123.5,256.5C 128.86,251.472 134.193,246.472 139.5,241.5C 141.085,240.998 141.585,239.998 141,238.5C 135.978,234.978 131.811,230.645 128.5,225.5C 146.435,202.196 169.768,193.529 198.5,199.5 Z"/></g>
<g><path style="opacity:1" fill="#85d16a" d="M 214.5,221.5 C 200.829,221.333 187.163,221.5 173.5,222C 171.987,224.916 172.32,227.582 174.5,230C 187.673,230.169 200.673,230.669 213.5,231.5C 201.304,241.549 187.304,245.049 171.5,242C 160.792,239.482 151.792,234.149 144.5,226C 166.68,204.439 190.013,202.939 214.5,221.5 Z"/></g>
<g><path style="opacity:1" fill="#faf9f8" d="M 264.5,228.5 C 262.407,229.045 260.407,229.878 258.5,231C 255.875,233.772 253.375,236.606 251,239.5C 243.019,237.103 234.852,236.103 226.5,236.5C 230.663,232.169 234.663,227.669 238.5,223C 248.735,217.242 257.402,219.075 264.5,228.5 Z"/></g>
<g><path style="opacity:1" fill="#035401" d="M 214.5,221.5 C 217.187,221.336 219.854,221.503 222.5,222C 224.013,224.916 223.68,227.582 221.5,230C 218.746,230.272 216.079,230.772 213.5,231.5C 200.673,230.669 187.673,230.169 174.5,230C 172.32,227.582 171.987,224.916 173.5,222C 187.163,221.5 200.829,221.333 214.5,221.5 Z"/></g>
<g><path style="opacity:1" fill="#fada7b" d="M 264.5,228.5 C 265.11,229.391 265.443,230.391 265.5,231.5C 264.07,236.743 263.07,242.076 262.5,247.5C 261.167,248.833 261.167,250.167 262.5,251.5C 256.79,284.643 246.29,316.309 231,346.5C 215.005,372.079 193.505,391.579 166.5,405C 158.807,408.514 151.141,412.014 143.5,415.5C 139.905,413.898 136.571,411.898 133.5,409.5C 115.194,376.701 113.694,343.035 129,308.5C 138.639,286.862 152.806,268.862 171.5,254.5C 192.647,256.639 210.981,250.639 226.5,236.5C 234.852,236.103 243.019,237.103 251,239.5C 253.375,236.606 255.875,233.772 258.5,231C 260.407,229.878 262.407,229.045 264.5,228.5 Z"/></g>
<g><path style="opacity:1" fill="#eeab4b" d="M 265.5,231.5 C 267.479,237.401 266.479,242.734 262.5,247.5C 263.07,242.076 264.07,236.743 265.5,231.5 Z"/></g>
<g><path style="opacity:1" fill="#f6d42d" d="M 139.5,241.5 C 134.193,246.472 128.86,251.472 123.5,256.5C 123.5,251.167 123.5,245.833 123.5,240.5C 129.026,240.179 134.36,240.512 139.5,241.5 Z"/></g>
<g><path style="opacity:1" fill="#fcfbfb" d="M 171.5,254.5 C 152.806,268.862 138.639,286.862 129,308.5C 113.694,343.035 115.194,376.701 133.5,409.5C 115.381,396.631 104.881,378.964 102,356.5C 99.5858,312.837 115.086,277.003 148.5,249C 149.729,248.219 151.062,247.719 152.5,247.5C 158.689,250.449 165.023,252.783 171.5,254.5 Z"/></g>
<g><path style="opacity:1" fill="#f7ae48" d="M 262.5,251.5 C 288.21,276.839 296.377,307.172 287,342.5C 276.89,379.6 254.724,406.767 220.5,424C 200.621,431.649 180.454,432.482 160,426.5C 157.943,430.238 155.443,433.738 152.5,437C 149.13,439.078 145.463,439.911 141.5,439.5C 141.269,435.007 141.936,430.674 143.5,426.5C 147.367,422.751 147.367,419.084 143.5,415.5C 151.141,412.014 158.807,408.514 166.5,405C 193.505,391.579 215.005,372.079 231,346.5C 246.29,316.309 256.79,284.643 262.5,251.5 Z"/></g>
<g><path style="opacity:1" fill="#f8ab31" d="M 274.5,395.5 C 274.5,401.5 274.5,407.5 274.5,413.5C 268.833,413.5 263.167,413.5 257.5,413.5C 263.139,407.526 268.805,401.526 274.5,395.5 Z"/></g>
<g><path style="opacity:1" fill="#f6f6f6" d="M 143.5,426.5 C 141.936,430.674 141.269,435.007 141.5,439.5C 129.303,437.645 123.969,430.645 125.5,418.5C 129.633,420.802 133.633,423.302 137.5,426C 139.473,426.495 141.473,426.662 143.5,426.5 Z"/></g>
</svg>
